<?xml version="1.0" encoding="UTF-8"?>
<svg id="Layer_1" xmlns="http://www.w3.org/2000/svg" version="1.1" viewBox="0 0 945.5 279.67">
  <!-- Generator: Adobe Illustrator 30.1.0, SVG Export Plug-In . SVG Version: 2.1.1 Build 136)  -->
  <g>
    <path d="M2.75,235.06v-1.78h15.91v1.25c0,22.65,7.15,29.43,22.17,29.43,12.87,0,20.38-6.6,20.38-22.65v-94.19h16.09v95.26c0,20.34-12.34,34.78-37,34.78-23.06,0-37.54-12.49-37.54-42.1Z"/>
    <path d="M88.73,228.64c0-26.76,17.16-48.52,44.69-48.52s44.51,21.76,44.51,48.52-16.81,48.52-44.51,48.52-44.69-21.76-44.69-48.52ZM163.1,228.64c0-20.34-10.01-36.57-29.68-36.57s-29.85,16.23-29.85,36.57,10.19,36.39,29.85,36.39,29.68-16.05,29.68-36.39Z"/>
    <path d="M246.56,274.66v-12.67h-.36c-6.62,8.92-14.48,14.81-27.89,14.81-18.95,0-31.11-11.42-31.11-30.5v-63.86h14.48v63.5c0,11.95,7.69,18.91,20.74,18.91,14.66,0,24.13-11.06,24.13-25.69v-56.73h14.48v92.22h-14.48Z"/>
    <path d="M290.2,197.78h.36c5.54-8.92,15.19-16.41,27.53-16.41,2.68,0,4.11.36,5.9,1.07v13.91h-.54c-2.15-.71-3.57-.89-6.44-.89-14.3,0-26.81,10.7-26.81,28.01v51.2h-14.48v-92.22h14.48v15.34Z"/>
    <path d="M344.89,194.56h.36c6.61-8.74,15.91-14.27,29.32-14.27,19.31,0,31.11,10.52,31.11,29.61v64.75h-14.48v-63.5c0-11.95-7.87-18.73-20.92-18.73-14.66,0-25.38,10.35-25.38,25.51v56.73h-14.48v-92.22h14.48v12.13Z"/>
    <path d="M476.65,261.82h-.18c-5.54,7.14-15.02,14.63-30.74,14.63-17.52,0-31.28-8.21-31.28-25.69,0-21.76,17.16-26.22,40.22-29.79,13.05-1.96,22.17-3.21,22.17-13.2s-7.51-16.23-20.74-16.23c-15.02,0-22.52,6.42-23.06,20.34h-13.94c.53-17.84,12.33-31.22,36.82-31.22,19.66,0,34.14,7.31,34.14,29.25v43.88c0,7.49,1.79,11.59,9.83,9.81h.53v10.52c-1.79.71-4.11,1.43-7.86,1.43-9.47,0-14.48-4.28-15.91-13.74ZM477,240.59v-15.7c-4.83,3.03-13.23,5.35-21.09,6.78-14.48,2.68-26.1,5.17-26.1,18.73,0,12.31,9.65,14.98,19.13,14.98,19.31,0,28.06-14.09,28.06-24.8Z"/>
    <path d="M506.89,147.11h14.48v127.54h-14.48v-127.54Z"/>
    <path d="M535.97,147.11h14.48v17.84h-14.48v-17.84ZM535.97,182.43h14.48v92.22h-14.48v-92.22Z"/>
    <path d="M558.92,244.69h14.84c1.97,16.05,12.69,20.51,26.46,20.51,15.19,0,21.45-6.6,21.45-15.16,0-10.35-7.15-13.02-24.13-16.59-18.23-3.75-34.5-7.49-34.5-27.65,0-15.34,11.8-25.33,33.25-25.33,22.88,0,34.14,10.88,36.29,28.9h-14.84c-1.43-12.13-8.04-17.48-21.81-17.48s-18.59,5.89-18.59,13.2c0,9.99,8.94,11.95,24.85,15.16,18.59,3.75,34.15,7.85,34.15,29.08,0,18.55-15.19,28.01-36.47,28.01-25.38,0-39.51-11.95-40.94-32.64Z"/>
    <path d="M645.92,182.43h14.48v13.2h.36c5.72-8.92,15.55-15.34,27.17-15.34s20.2,5.71,24.13,16.41h.36c5.9-10.52,16.98-16.41,28.24-16.41,16.45,0,28.07,10.52,28.07,29.61v64.75h-14.48v-64.04c0-11.42-7.69-18.19-16.98-18.19-11.98,0-22.7,10.35-22.7,24.8v57.44h-14.48v-64.04c0-11.42-6.43-18.19-15.91-18.19-11.26,0-23.77,10.35-23.77,24.8v57.44h-14.48v-92.22Z"/>
    <path d="M842,274.66v-12.67h-.36c-6.61,8.92-14.48,14.81-27.89,14.81-18.95,0-31.11-11.42-31.11-30.5v-63.86h14.48v63.5c0,11.95,7.69,18.91,20.73,18.91,14.66,0,24.13-11.06,24.13-25.69v-56.73h14.48v92.22h-14.48Z"/>
    <path d="M865.35,244.69h14.84c1.96,16.05,12.69,20.51,26.46,20.51,15.19,0,21.45-6.6,21.45-15.16,0-10.35-7.15-13.02-24.13-16.59-18.23-3.75-34.5-7.49-34.5-27.65,0-15.34,11.8-25.33,33.25-25.33,22.88,0,34.14,10.88,36.29,28.9h-14.84c-1.43-12.13-8.04-17.48-21.81-17.48s-18.59,5.89-18.59,13.2c0,9.99,8.94,11.95,24.85,15.16,18.59,3.75,34.14,7.85,34.14,29.08,0,18.55-15.19,28.01-36.47,28.01-25.38,0-39.51-11.95-40.94-32.64Z"/>
  </g>
  <g>
    <g>
      <path d="M176.06,121.25c0,2.12-2.12,5.12-6.37,9.01-4.78,4.06-9.38,6.18-14.17,6.18-7.26,0-11.51-5.65-11.51-12.72,0-1.94.71-6.71,2.3-14.14l6.55-30.21c1.59-7.95,2.48-13.96,2.48-17.85,0-7.07-3.01-10.6-8.85-10.6-8.68,0-17.88,8.3-27.45,25.09-8.14,14.31-14.16,29.33-17.88,45.06-1.59,6.01-2.48,9.72-2.66,11.13-.35,1.24-1.24,2.12-2.48,2.3l-8.85,1.77c-.53.18-1.06.18-1.24.18-.89,0-1.24-.35-1.24-1.24,0-.18.18-.71.35-1.94l22.66-110.26c.18-1.24.35-2.12.35-2.65,0-3.71-2.83-4.95-10.8-4.95h-26.74c-.89,0-1.42.53-1.77,1.41l-18.06,89.05c-1.24,6.54-1.95,11.13-1.95,13.78,0,9.54,8.15,7.42,8.15,11.84,0,1.94-1.59,3-4.61,3h-26.73c-2.48,0-3.72-1.06-3.72-3,0-1.24,1.24-2.47,3.54-3.53,2.12-.88,3.9-2.3,5.49-4.24,2.12-2.65,4.25-8.66,6.2-17.85L54.95,17.71c.18-.53.18-1.06.18-1.24,0-.71-.36-1.06-1.24-1.06-6.55,0-11.33.18-14.34.71-3.01.53-6.02,1.77-9.38,3.89-3.19,1.94-4.6,3.53-6.73,6.54l-1.59,2.47c-.71.88-3.19,4.95-3.72,5.83-1.59,3-3.37,4.59-5.31,4.59-2.66,0-4.07-1.41-4.07-4.06,0-.71.89-4.95,2.84-12.9,1.42-6.18,2.3-9.89,2.66-10.96,1.06-3,3.72-4.59,7.79-4.59.53,0,3.9.18,9.74.71,6.02.35,12.22.53,18.59.53h26.91c9.38,0,17-.35,23.2-1.06,4.96-.53,10.27-1.94,16.11-3.89,1.77-.53,3.01-.88,3.9-.88,2.3,0,3.54,1.06,3.54,3,0,.71-.18,1.59-.36,2.65-9.21,44.35-13.81,67.14-13.81,68.38,0,.35.18.53.53.53.18,0,.35-.18.53-.35,11.33-21.91,25.85-36.22,40.19-36.22,5.67,0,10.09,1.77,13.1,5.3,3.19,3.36,4.78,8.13,4.78,14.14s-1.59,16.08-4.6,30.21c-3.72,16.61-5.49,26.68-5.49,30.21,0,3.18,1.06,4.77,3.36,4.77,1.42,0,3.36-.88,4.25-1.59,1.24-.88,3.37-2.83,3.9-3,1.24-1.06,2.48-1.59,3.37-1.59,1.59,0,2.3.88,2.3,2.47Z"/>
      <path d="M200.31,91.92c-.71,3.89-1.06,7.6-1.06,11.31,0,13.61,6.73,23.85,18.95,23.85,5.84,0,11.69-1.94,17.88-5.65,3.72-2.12,9.21-7.07,10.98-6.54,1.42,0,2.66,1.24,2.66,2.83,0,3-3.36,6.54-9.91,10.78-7.97,5.3-16.29,7.95-24.97,7.95-17.88,0-29.75-13.08-29.75-32.16,0-12.19,3.72-24.03,11.33-35.87,11.16-17.14,27.27-28.09,43.56-28.09,13.28,0,22.84,8.3,22.84,19.79,0,9.19-6.02,18.38-18.06,24.21-8.32,4.06-19.66,6.18-34.35,6.18-3.72,0-6.37,0-8.14-.18-1.06,0-1.77.53-1.95,1.59ZM241.75,74.07c5.84-4.59,8.68-9.72,8.68-15.2,0-7.07-5.49-11.84-13.1-11.84-7.08,0-13.99,3.53-20.54,10.6-6.55,6.89-11.16,14.67-13.64,23.32-.18.88-.35,1.41-.35,1.59,0,.88.53,1.24,1.42,1.24,17.18-.18,29.75-3.36,37.54-9.72Z"/>
      <path d="M347.63,40.32c1.95,0,3.01,1.06,3.01,3.36,0,1.06-2.83,15.37-8.68,42.76-4.07,19.61-6.02,30.74-6.02,33.75,0,3.36,1.24,4.95,3.54,4.95,1.59,0,3.54-1.06,5.84-3,2.48-2.12,4.07-3.18,4.96-3.18,1.95,0,2.84.88,2.84,2.65,0,.88-.36,1.94-.89,2.83-3.72,6.36-11.69,12.02-18.95,12.02s-11.33-5.12-11.33-13.08c0-3.71,1.59-12.19,4.6-25.44,0-.35-.18-.53-.35-.53-.36,0-.71.18-.89.71-6.55,12.72-14.34,22.79-23.02,30.04-6.55,5.48-13.1,8.3-19.65,8.3-12.57,0-18.42-10.78-18.42-24.74s4.25-28.45,12.57-43.11c10.8-18.91,23.72-28.27,38.95-28.27,4.6,0,9.21.88,13.81,2.83,4.6,1.77,7.44,2.65,8.68,2.65,1.59,0,3.54-1.24,6.02-3.71,1.24-1.24,2.3-1.77,3.36-1.77ZM283.88,82.73c-3.19,10.07-4.78,19.26-4.78,27.56,0,10.78,3.01,16.26,8.85,16.26,6.38,0,14.87-7.24,25.5-21.73,5.67-7.77,10.45-16.43,14.52-25.97,4.07-9.54,6.2-16.08,6.2-19.61,0-4.06-4.07-7.6-12.04-10.6-2.84-1.06-5.49-1.59-8.15-1.59-4.96,0-9.56,1.77-13.81,5.48-6.2,5.48-11.69,15.55-16.29,30.21Z"/>
      <path d="M414.2,119.13c0,1.24-.53,2.65-1.77,4.24-6.73,8.66-15.23,13.08-25.32,13.08-10.63,0-18.59-6.01-18.59-19.61,0-3.71.71-9.54,2.3-17.14,1.59-7.77,3.37-16.26,5.67-25.27,2.3-9.19,3.54-15.2,4.07-17.85.18-.71.18-1.24.18-1.41,0-.88-.53-1.24-1.42-1.24h-11.16c-.89,0-1.42-.53-1.42-1.41,0-.18,0-.71.18-1.24l.89-4.24c.18-.88.71-1.41,1.59-1.77,6.02-1.94,10.27-3.89,12.75-6.18,1.24-1.24,2.84-3.36,3.72-5.12.53-.88,1.77-3.71,1.95-4.59l2.66-6.54c.53-1.24,1.24-1.94,2.48-1.94h5.67c1.06,0,1.59.35,1.59,1.24,0,.35,0,.88-.18,1.59l-3.54,17.14c-.18,1.06-.36,1.77-.36,2.3,0,1.41,1.06,2.12,3.19,2.12,3.54,0,6.73,0,9.56-.18,1.42,0,3.72-.18,7.08-.53,3.36-.35,5.67-.53,6.9-.53,3.01,0,4.6.88,4.6,2.47,0,.35-.35,1.41-1.06,3.18-1.59,4.06-3.19,4.95-7.97,4.95-1.42,0-3.72,0-6.73-.18-3.01-.18-4.96-.35-5.84-.35-2.48-.18-5.85-.18-9.92-.18-1.24,0-2.12.71-2.48,2.12-6.55,27.74-9.91,47-9.91,57.78,0,8.3,3.01,12.55,9.03,12.55,3.01,0,6.02-1.06,9.03-3,4.07-2.47,7.97-6.71,10.09-6.71,1.59,0,2.48.88,2.48,2.47Z"/>
      <path d="M439.52,91.92c-.71,3.89-1.06,7.6-1.06,11.31,0,13.61,6.73,23.85,18.95,23.85,5.84,0,11.69-1.94,17.88-5.65,3.72-2.12,9.21-7.07,10.98-6.54,1.42,0,2.65,1.24,2.65,2.83,0,3-3.36,6.54-9.91,10.78-7.97,5.3-16.29,7.95-24.97,7.95-17.88,0-29.75-13.08-29.75-32.16,0-12.19,3.72-24.03,11.33-35.87,11.16-17.14,27.27-28.09,43.56-28.09,13.28,0,22.84,8.3,22.84,19.79,0,9.19-6.02,18.38-18.06,24.21-8.32,4.06-19.66,6.18-34.35,6.18-3.72,0-6.38,0-8.15-.18-1.06,0-1.77.53-1.95,1.59ZM480.95,74.07c5.84-4.59,8.68-9.72,8.68-15.2,0-7.07-5.49-11.84-13.1-11.84-7.08,0-13.99,3.53-20.54,10.6-6.55,6.89-11.16,14.67-13.64,23.32-.18.88-.35,1.41-.35,1.59,0,.88.53,1.24,1.42,1.24,17.17-.18,29.75-3.36,37.54-9.72Z"/>
      <path d="M578.86,49.87c0,4.95-1.59,7.42-4.78,7.42-2.12,0-5.85-2.83-9.21-2.83-7.26,0-15.41,7.42-24.08,22.26-7.61,13.08-13.46,27.92-17.35,44.35l-2.48,11.13c-.36,1.24-1.24,1.94-2.48,2.3l-8.14,1.77c-.53.18-1.06.18-1.42.18-1.06,0-1.59-.53-1.59-1.59,0-.35,0-.88.18-1.41l12.75-62.73c1.24-6.18,1.95-10.42,1.95-12.72,0-1.94-.53-3.53-1.59-4.59-3.01-2.47-8.68-2.65-8.68-5.65,0-1.94,1.77-3.18,5.49-3.71,5.13-.71,9.91-1.77,14.34-3,1.42-.53,2.48-.71,3.19-.71,2.48,0,3.72,1.06,3.72,3.36,0,.53,0,1.06-.18,1.59l-6.2,30.04c-.18.53-.18.88-.18,1.06,0,.35.18.53.53.53.18,0,.53-.35.89-1.06,5.49-10.42,11.51-19.08,18.24-25.62,6.9-6.54,13.1-9.89,18.59-9.89s8.5,4.06,8.5,9.54Z"/>
    </g>
    <g>
      <path d="M680.28,131.32c-4.78,1.06-9.21,2.47-13.1,4.24-1.42.71-2.66,1.06-3.72,1.06-2.3,0-3.54-1.41-3.54-4.42v-11.48c0-.71-.53-.71-1.06,0-5.84,9.36-16.64,15.73-28.86,15.73-9.38,0-16.64-3-21.42-8.83-4.61-5.48-6.91-14.14-6.91-25.97v-34.28c0-6.36-.71-10.42-1.95-12.02-.89-1.06-2.66-1.94-5.67-2.83-2.48-.71-3.72-1.77-3.72-3.18,0-1.94,1.42-3.36,4.25-3.89,4.07-.88,8.68-2.3,13.46-4.24,1.24-.53,2.48-.71,3.36-.71,2.3,0,3.54,1.41,3.54,4.24v57.07c0,14.31,6.2,23.68,19.83,23.68,6.55,0,12.04-2.12,16.29-6.36,3.37-3.36,5.67-8.3,6.91-14.84,1.24-6.54,1.95-17.49,1.95-32.51,0-9.19-.71-14.67-1.95-16.43-.89-1.06-2.66-1.94-5.67-2.83-2.48-.71-3.72-1.77-3.72-3.36,0-1.94,1.42-3.18,4.25-3.71,3.9-.88,8.32-2.3,13.46-4.24,1.24-.53,2.3-.71,3.19-.71,2.48,0,3.72,1.41,3.72,4.24v64.85c0,6.36.71,10.43,1.95,12.02.89,1.24,2.83,2.12,5.67,2.83,2.48.71,3.72,1.77,3.72,3.18,0,1.77-1.42,3-4.25,3.71Z"/>
      <path d="M786.7,131.5c0,1.94-1.42,3-4.43,3h-26.2c-2.84,0-4.25-1.06-4.25-3,0-1.24.89-2.3,2.65-3.18,2.48-1.06,4.25-2.47,5.14-4.06,1.95-3.18,2.83-9.54,2.83-18.91v-30.04c0-15.37-7.08-23.68-20.54-23.68-6.55,0-11.86,2.12-16.11,6.36-3.54,3.53-5.84,8.48-6.9,14.67-1.06,6.18-1.59,17.14-1.59,32.69,0,9.36.89,15.73,2.83,18.91.89,1.41,2.48,2.83,5.13,4.06,1.77.88,2.66,1.94,2.66,3.18,0,1.94-1.42,3-4.25,3h-26.03c-2.84,0-4.25-1.06-4.25-3,0-1.24.89-2.3,2.66-3.18,2.65-1.24,4.43-2.47,5.31-4.06,1.95-3.18,2.84-9.54,2.84-18.91v-34.63c0-8.66-.71-13.78-2.13-15.55-.89-1.06-2.65-1.94-5.67-2.83-2.48-.71-3.72-1.77-3.72-3.18,0-1.77,1.42-3,4.43-3.71,4.78-1.06,9.38-2.47,13.64-4.42,1.06-.53,2.12-.71,3.01-.71,2.3,0,3.54,1.41,3.54,4.06v11.48c0,1.24.53,1.24,1.24,0,6.9-10.42,16.47-15.55,28.68-15.55,9.03,0,16.11,3,21.43,8.84,4.96,5.48,7.44,13.96,7.44,25.8v30.39c0,9.72.89,15.9,2.66,18.91.88,1.59,2.65,3,5.13,4.06,1.95.88,2.83,1.94,2.83,3.18Z"/>
      <path d="M885.14,127.61c0,1.59-1.42,2.83-4.43,3.53-4.96,1.24-9.03,2.47-12.22,3.89-2.3,1.06-3.9,1.59-4.78,1.59-2.12,0-3.19-1.41-3.19-4.24v-10.78c0-.88-.17-1.24-.71-1.24-.18,0-.71.35-1.24.88-8.68,10.07-18.59,15.2-29.75,15.2s-20.36-4.24-26.74-12.9c-6.2-8.66-9.38-18.91-9.38-31.1,0-14.31,3.9-26.5,11.51-36.75,7.79-10.25,17.71-15.37,29.75-15.37,8.5,0,16.65,2.65,24.44,8.13.53.53,1.06.71,1.42.71.53,0,.71-.35.71-.88v-18.73c0-6.71-.71-10.78-1.95-12.19-1.06-1.24-2.84-2.3-5.49-3-2.66-.71-4.07-1.77-4.07-3,0-1.94.89-2.83,4.6-3.71,5.31-1.24,9.74-2.65,13.46-4.24,1.59-.71,2.84-1.06,3.54-1.06,2.12,0,3.19,1.41,3.19,4.24v104.78c0,5.3.71,8.66,1.95,10.07,1.06,1.24,2.83,2.12,5.49,3,2.66.53,3.9,1.59,3.9,3.18ZM860.52,87.85c0-25.62-10.98-40.29-27.27-40.29-8.15,0-14.7,3.71-19.48,11.13-4.78,7.24-7.26,16.96-7.26,28.8s2.66,20.85,7.97,28.09c5.31,7.07,12.04,10.6,20.01,10.6,15.58,0,26.03-13.61,26.03-38.34Z"/>
    </g>
  </g>
</svg>